<?xml version="1.0" standalone="no"?>
<!DOCTYPE svg PUBLIC "-//W3C//DTD SVG 1.1//EN" "http://www.w3.org/Graphics/SVG/1.1/DTD/svg11.dtd" >
<svg xmlns="http://www.w3.org/2000/svg" xmlns:xlink="http://www.w3.org/1999/xlink" version="1.1">
<metadata></metadata>
<defs>
<font id="evogriaitalic" horiz-adv-x="1302" >
<font-face units-per-em="2048" ascent="1638" descent="-410" />
<missing-glyph horiz-adv-x="508" />
<glyph unicode="&#xd;" horiz-adv-x="508" />
<glyph horiz-adv-x="0" />
<glyph horiz-adv-x="0" />
<glyph unicode=" "  horiz-adv-x="508" />
<glyph unicode="&#x09;" horiz-adv-x="508" />
<glyph unicode="&#xa0;" horiz-adv-x="508" />
<glyph unicode="!" horiz-adv-x="885" d="M218 1l61 313h354l-61 -313h-354zM330 528l226 1164h336l-226 -1164h-336z" />
<glyph unicode="&#x22;" horiz-adv-x="1071" d="M425 1141l55 665h336l-206 -665h-185zM850 1141l55 665h336l-206 -665h-185z" />
<glyph unicode="#" horiz-adv-x="1403" d="M96 0l177 481h-125l56 283h174l96 263h-219l54 282h268l142 383h302l-141 -383h233l141 384h303l-142 -384h123l-54 -282h-172l-96 -263h217l-56 -283h-267l-176 -480h-302l176 480h-233l-176 -481h-303zM680 764h233l97 263h-233z" />
<glyph unicode="$" horiz-adv-x="1255" d="M136 214l66 340h336l-50 -258h318l51 266q22 110 -137 110q-208 0 -326 111q-125 118 -87 312l68 349q18 96 106 164q86 67 187 67h80l30 156h335l-30 -156h79q101 0 161 -67q60 -68 42 -164l-67 -341h-336l51 259h-318l-52 -267q-22 -110 137 -110q208 0 326 -110 q125 -118 87 -313l-67 -348q-19 -96 -106 -165q-86 -66 -187 -66h-80l-30 -155h-334l30 155h-80q-101 0 -161 66q-61 69 -42 165z" />
<glyph unicode="%" horiz-adv-x="2077" d="M389 955l125 646q10 50 69 86q58 35 128 35h297q72 0 116 -35q45 -36 35 -86l-126 -646q-9 -50 -68 -86q-58 -35 -130 -35h-296q-71 0 -115 35q-45 36 -35 86zM616 0l953 1692h262l-954 -1692h-261zM632 998h174l109 560h-174zM1272 91l125 646q10 50 69 86q58 35 129 35 h296q72 0 116 -35q45 -36 35 -86l-125 -646q-10 -50 -69 -86q-58 -35 -129 -35h-297q-71 0 -115 35q-45 36 -35 86zM1515 134h175l108 560h-174z" />
<glyph unicode="&#x26;" horiz-adv-x="1350" d="M127 231l78 400q32 165 160 275q-48 86 -24 208l67 347q19 96 106 164q86 67 187 67h452q101 0 161 -67q61 -68 42 -164l-58 -298q-38 -194 -209 -312q-160 -111 -368 -111q-159 0 -180 -109l-62 -318h318l23 119q82 421 542 423h56l-61 -314h-56q-68 0 -99 -22 q-34 -24 -46 -87l-39 -201q-19 -96 -106 -164q-86 -67 -187 -67h-494q-101 0 -161 67q-61 68 -42 164zM674 1101q-3 -30 1 -55q52 8 107 8q159 0 180 109l42 216h-276z" />
<glyph unicode="'" horiz-adv-x="654" d="M425 1141l55 665h336l-206 -665h-185z" />
<glyph unicode="(" horiz-adv-x="938" d="M269 110l274 1408q35 179 193 288q148 103 341 103h56l-42 -216h-56q-150 -16 -170 -118l-296 -1522q-20 -102 124 -118h56l-42 -216h-56q-193 0 -301 103q-115 109 -81 288z" />
<glyph unicode=")" horiz-adv-x="942" d="M36 -281l42 216h56q150 16 170 118l296 1522q20 102 -124 118h-56l42 216h56q193 0 301 -103q116 -109 81 -288l-274 -1408q-34 -179 -193 -288q-148 -103 -341 -103h-56z" />
<glyph unicode="*" horiz-adv-x="1226" d="M335 1190l36 185q318 36 347 61t123 336h186q-24 -311 -4 -336t324 -61l-36 -185q-317 -34 -347 -58.5t-126 -335.5h-186q26 311 7 335.5t-324 58.5z" />
<glyph unicode="+" horiz-adv-x="1194" d="M245 783l55 283h327l64 326h282l-64 -326h327l-55 -283h-327l-63 -327h-282l63 327h-327z" />
<glyph unicode="," horiz-adv-x="672" d="M130 2l61 313h354l-61 -313l-318 -354l68 354h-104z" />
<glyph unicode="-" horiz-adv-x="1040" d="M239 662l55 283h753l-55 -283h-753z" />
<glyph unicode="." horiz-adv-x="669" d="M130 1l61 313h354l-61 -313h-354z" />
<glyph unicode="/" horiz-adv-x="945" d="M149 0l622 1692h303l-623 -1692h-302z" />
<glyph unicode="0" d="M248 231l239 1230q19 96 106 164q86 67 187 67h424q102 0 162 -67q61 -68 42 -164l-239 -1230q-19 -96 -106 -164q-86 -67 -188 -67h-424q-101 0 -161 67q-61 68 -42 164zM600 313h249l207 1066h-249z" />
<glyph unicode="1" d="M216 0l61 313h293l207 1066h-293l61 313h380q102 0 161 -67q61 -68 42 -164l-223 -1148h293l-61 -313h-921z" />
<glyph unicode="2" d="M191 0l113 580q38 195 189 310q148 113 354 113q67 0 98 22q35 24 47 87l52 267h-249l-50 -258h-336l66 340q19 96 106 164q86 67 187 67h424q102 0 162 -67q61 -68 42 -164l-68 -349q-38 -195 -188 -310q-148 -113 -354 -113q-68 0 -99 -22q-35 -24 -47 -87l-52 -267 h585l-61 -313h-921z" />
<glyph unicode="3" d="M219 231l66 341h336l-50 -259h249l52 267q12 63 -13 87q-23 22 -90 22h-165l61 314h165q67 0 98 22q35 24 47 87l52 267h-249l-50 -258h-336l66 340q19 96 106 164q86 67 187 67h424q102 0 162 -67q61 -68 42 -164l-68 -349q-32 -165 -149 -266q78 -101 46 -266l-68 -349 q-19 -96 -106 -164q-86 -67 -188 -67h-424q-101 0 -161 67q-61 68 -42 164z" />
<glyph unicode="4" d="M224 613l364 1079h310l-320 -996h276l194 996h336l-194 -996h133l-61 -313h-133l-74 -383h-336l74 383h-366q-101 0 -161 66q-61 68 -42 164z" />
<glyph unicode="5" d="M255 231l66 341h336l-50 -259h249l92 475q12 63 -5 86q-17 22 -83 22q-68 0 -106 -21q-43 -26 -55 -87l-23 -119h-336l199 1023h921l-61 -313h-585l-61 -314q183 86 308 86q83 0 140 -38q130 -86 83 -325l-108 -557q-19 -96 -106 -164q-86 -67 -188 -67h-424 q-101 0 -161 67q-61 68 -42 164z" />
<glyph unicode="6" d="M248 231l239 1230q19 96 106 164q86 67 187 67h424q102 0 162 -67q61 -68 42 -164l-66 -340h-336l50 258h-249l-85 -439q142 70 253 70q97 0 169 -53q145 -106 100 -339l-75 -387q-19 -96 -106 -164q-86 -67 -188 -67h-424q-101 0 -161 67q-61 68 -42 164zM600 313h249 l59 305q12 62 -13 87q-23 22 -90 22q-68 0 -99 -22q-35 -25 -47 -87z" />
<glyph unicode="7" d="M354 0l14 70q40 209 136 395q70 134 234 366q220 313 279 548h-247l-50 -258h-336l66 340q19 96 106 164q86 67 187 67h424q102 0 162 -67q61 -68 42 -164q-45 -230 -146 -424q-70 -133 -251 -391q-218 -309 -270 -576l-14 -70h-336z" />
<glyph unicode="8" d="M236 231l68 349q32 165 147 266q-76 101 -44 266l68 349q19 96 106 164q86 67 187 67h424q102 0 162 -67q61 -68 42 -164l-68 -349q-32 -165 -149 -266q78 -101 46 -266l-68 -349q-19 -96 -106 -164q-86 -67 -188 -67h-424q-101 0 -161 67q-61 68 -42 164zM588 313h249 l52 267q12 63 -13 87q-23 22 -90 22q-68 0 -100 -22q-34 -24 -46 -87zM743 1112q-12 -63 12 -87q24 -22 92 -22q67 0 98 22q35 24 47 87l52 267h-249z" />
<glyph unicode="9" d="M235 231l66 341h336l-50 -259h249l85 439q-142 -70 -253 -70q-97 0 -169 53q-145 107 -100 339l75 387q19 96 106 164q86 67 187 67h424q102 0 162 -67q61 -68 42 -164l-239 -1230q-19 -96 -106 -164q-86 -67 -188 -67h-424q-101 0 -161 67q-61 68 -42 164zM735 1074 q-12 -62 12 -87q23 -22 91 -22q67 0 99 22q35 25 47 87l59 305h-249z" />
<glyph unicode=":" horiz-adv-x="525" d="M61 1l61 313h354l-61 -313h-354zM252 983l61 313h354l-61 -313h-354z" />
<glyph unicode=";" horiz-adv-x="525" d="M61 2l61 313h354l-61 -313l-318 -354l68 354h-104zM252 984l61 313h354l-61 -313h-354z" />
<glyph unicode="&#x3c;" horiz-adv-x="1144" d="M250 751l56 288l1000 331l-55 -283l-688 -192l614 -192l-55 -283z" />
<glyph unicode="=" horiz-adv-x="1152" d="M201 481l56 283h936l-56 -283h-936zM308 1027l54 282h936l-54 -282h-936z" />
<glyph unicode="&#x3e;" horiz-adv-x="1144" d="M186 420l55 283l688 192l-614 192l55 283l872 -331l-56 -288z" />
<glyph unicode="?" horiz-adv-x="1045" d="M252 1121l66 340q19 96 106 165q86 66 187 66h424q102 0 162 -66q61 -69 42 -165q-45 -230 -146 -424q-70 -133 -251 -391q-42 -60 -80 -119h-356q71 121 200 304q220 313 279 548h-247l-50 -258h-336zM305 1l61 313h354l-61 -313h-354z" />
<glyph unicode="@" horiz-adv-x="1984" d="M83 -122l299 1536q15 78 86 134q69 54 152 54h1287q83 0 133 -54q49 -56 34 -134l-211 -1084q-15 -79 -86 -134t-154 -55h-850q-81 0 -128 53q-48 54 -33 130l92 475q30 154 166 248q127 87 292 87h392l-117 -603h-266l69 355h-126q-127 0 -144 -87l-79 -410h710l186 958 h-1145l-273 -1402h709l-49 -256h-780q-83 0 -132 55t-34 134z" />
<glyph unicode="A" horiz-adv-x="1145" d="M-12 0l657 1692h447l-2 -1692h-341l1 343h-287l-135 -343h-340zM585 656h164l58 721z" />
<glyph unicode="B" horiz-adv-x="1219" d="M84 0l329 1692h699q102 0 163 -67q47 -52 47 -120q0 -21 -5 -44l-68 -349q-30 -153 -158 -250q103 -79 103 -209q0 -35 -7 -73l-31 -157q-37 -194 -208 -312q-161 -111 -369 -111h-495zM481 313h159q159 0 180 110l31 157q2 11 2 20q0 33 -23 58q-30 31 -78 31h-198z M615 1003h155q49 0 91 31q43 33 52 78l52 267h-277z" />
<glyph unicode="C" horiz-adv-x="1171" d="M113 231l239 1230q19 96 106 164q86 67 187 67h494q101 0 161 -67q47 -52 47 -120q0 -21 -5 -44l-66 -340h-336l50 258h-318l-207 -1066h318l50 259h336l-66 -341q-19 -96 -106 -164q-86 -67 -187 -67h-494q-101 0 -161 67q-47 52 -47 120q0 21 5 44z" />
<glyph unicode="D" horiz-adv-x="1240" d="M84 0l329 1692h742q101 0 161 -67q47 -52 47 -120q0 -21 -5 -44l-202 -1038q-37 -194 -208 -312q-161 -111 -369 -111h-495zM481 313h159q159 0 180 110l186 956h-318z" />
<glyph unicode="E" horiz-adv-x="1068" d="M84 0l329 1692h896l-61 -313h-560l-73 -376h466l-61 -314h-466l-73 -376h560l-61 -313h-896z" />
<glyph unicode="F" horiz-adv-x="1030" d="M84 0l329 1692h896l-61 -313h-560l-73 -376h466l-61 -314h-466l-134 -689h-336z" />
<glyph unicode="G" horiz-adv-x="1200" d="M113 231l239 1230q19 96 106 164q86 67 187 67h494q101 0 161 -67q47 -52 47 -120q0 -21 -5 -44l-66 -340h-336l50 258h-318l-207 -1066h318l56 290h-159l61 313h495l-133 -685q-19 -96 -106 -164q-86 -67 -187 -67h-494q-101 0 -161 67q-47 52 -47 120q0 21 5 44z" />
<glyph unicode="H" horiz-adv-x="1258" d="M84 0l329 1692h336l-134 -689h318l134 689h336l-329 -1692h-336l134 689h-318l-134 -689h-336z" />
<glyph unicode="I" horiz-adv-x="604" d="M84 0l329 1692h336l-329 -1692h-336z" />
<glyph unicode="J" horiz-adv-x="821" d="M-23 0l61 313h179q160 0 181 110l247 1269h336l-247 -1269q-37 -194 -208 -312q-162 -111 -370 -111h-179z" />
<glyph unicode="K" horiz-adv-x="1158" d="M84 0l329 1692h336l-134 -689h129l342 689h341l-419 -846l90 -846h-341l-74 689h-129l-134 -689h-336z" />
<glyph unicode="L" horiz-adv-x="941" d="M84 0l329 1692h336l-268 -1379h466l-61 -313h-802z" />
<glyph unicode="M" horiz-adv-x="1818" d="M84 0l329 1692h466l43 -1375l575 1375h466l-329 -1692h-336l217 1115l-451 -1115h-408l-19 1115l-217 -1115h-336z" />
<glyph unicode="N" horiz-adv-x="1345" d="M84 0l329 1692h466l62 -1095l213 1095h336l-329 -1692h-465l-64 1090l-212 -1090h-336z" />
<glyph unicode="O" horiz-adv-x="1235" d="M113 231l239 1230q19 96 106 164q86 67 187 67h494q101 0 161 -67q47 -52 47 -120q0 -21 -5 -44l-239 -1230q-19 -96 -106 -164q-86 -67 -187 -67h-494q-101 0 -161 67q-47 52 -47 120q0 21 5 44zM465 313h318l207 1066h-318z" />
<glyph unicode="P" horiz-adv-x="1175" d="M84 0l329 1692h742q101 0 161 -67q47 -52 47 -120q0 -21 -5 -44l-85 -436q-37 -193 -208 -311q-161 -111 -369 -111h-159l-117 -603h-336zM598 916h159q159 0 180 109l69 354h-318z" />
<glyph unicode="Q" horiz-adv-x="1231" d="M112 234l239 1229q19 96 106 165q86 66 187 66h494q101 0 161 -66q47 -53 47 -121q0 -21 -5 -44l-201 -1038q-28 -143 -133 -248q48 -68 48 -156q0 -33 -7 -69l-20 -101h-336l20 101q5 27 -4 50h-393q-101 0 -161 67q-46 52 -46 122q0 21 4 43zM464 315h228q62 0 84 24 q14 18 28 86l185 956h-318z" />
<glyph unicode="R" horiz-adv-x="1231" d="M84 0l329 1692h742q101 0 161 -67q47 -52 47 -120q0 -21 -5 -44l-85 -436q-32 -166 -180 -265q84 -77 84 -194q0 -35 -7 -73l-96 -493h-336l96 493q2 11 2 21q0 33 -23 58q-30 31 -78 31h-198l-117 -603h-336zM598 916h198q48 0 90 32q42 31 51 77l69 354h-318z" />
<glyph unicode="S" horiz-adv-x="1181" d="M101 231l66 341h336l-50 -259h318l52 267q2 13 2 24q0 85 -140 85q-208 0 -325 111q-97 91 -97 226q0 41 9 86l68 349q19 96 106 164q86 67 187 67h494q101 0 161 -67q47 -52 47 -120q0 -21 -5 -44l-66 -340h-336l50 258h-318l-52 -267q-2 -13 -3 -24q0 -85 141 -85 q208 0 325 -111q96 -91 96 -227q0 -40 -8 -85l-68 -349q-19 -96 -106 -164q-86 -67 -187 -67h-494q-101 0 -161 67q-47 52 -47 120q0 21 5 44z" />
<glyph unicode="T" horiz-adv-x="994" d="M246 1379l61 313h990l-61 -313h-327l-268 -1379h-335l268 1379h-328z" />
<glyph unicode="U" horiz-adv-x="1242" d="M117 231l284 1461h336l-268 -1379h318l268 1379h336l-284 -1461q-19 -96 -106 -164q-86 -67 -187 -67h-494q-101 0 -161 67q-47 52 -47 120q0 21 5 44z" />
<glyph unicode="V" horiz-adv-x="1134" d="M315 0l1 1692h340v-16q0 -465 -55 -1354q296 905 476 1370h341l-656 -1692h-447z" />
<glyph unicode="W" horiz-adv-x="1927" d="M285 0l39 1692h340q-11 -463 -88 -1376l473 1376h427l-63 -1376q279 913 448 1376h340l-618 -1692h-449l37 1218l-437 -1218h-449z" />
<glyph unicode="X" horiz-adv-x="1097" d="M-12 0l419 846l-90 846h341q25 -232 44 -689q197 457 312 689h342l-420 -846l91 -846h-342q-26 233 -44 689q-197 -456 -312 -689h-341z" />
<glyph unicode="Y" horiz-adv-x="1011" d="M289 1692h343q20 -195 20 -585q0 -106 -1 -225q215 563 336 810h343l-568 -1113l-113 -579h-336l112 578z" />
<glyph unicode="Z" horiz-adv-x="906" d="M-5 0l682 1379h-390l61 313h827l-683 -1379h390l-61 -313h-826z" />
<glyph unicode="[" horiz-adv-x="814" d="M95 -281l426 2190h514l-42 -216h-203l-342 -1758h203l-42 -216h-514z" />
<glyph unicode="\" horiz-adv-x="896" d="M444 0l35 1692h303l-36 -1692h-302z" />
<glyph unicode="]" horiz-adv-x="814" d="M95 -281l42 216h203l342 1758h-203l42 216h514l-426 -2190h-514z" />
<glyph unicode="^" horiz-adv-x="1250" d="M320 873l490 818h288l172 -818h-283l-82 569l-302 -569h-283z" />
<glyph unicode="_" horiz-adv-x="1437" d="M100 -256l42 213h1137l-42 -213h-1137z" />
<glyph unicode="`" horiz-adv-x="731" d="M535 1983h319l52 -310h-221z" />
<glyph unicode="a" horiz-adv-x="1132" d="M39 0l624 1607h424l-1 -1607h-324v326h-272l-128 -326h-323zM606 623h155l55 685z" />
<glyph unicode="b" horiz-adv-x="1215" d="M139 0l312 1607h664q97 0 155 -63q45 -50 45 -116q0 -19 -4 -40l-65 -332q-28 -145 -151 -237q99 -75 99 -198q0 -33 -7 -70l-29 -149q-36 -184 -199 -297q-152 -105 -350 -105h-470zM516 297h151q151 0 171 105l29 149q2 10 2 20q0 31 -22 54q-28 30 -74 30h-188z M643 953h147q47 0 87 29q41 32 49 74l50 254h-263z" />
<glyph unicode="c" horiz-adv-x="1179" d="M167 219l227 1169q17 91 100 156q82 63 178 63h469q96 0 153 -63q45 -50 45 -116q0 -19 -4 -40l-63 -323h-320l48 245h-302l-197 -1013h302l48 246h320l-63 -324q-18 -91 -102 -155q-81 -64 -177 -64h-469q-96 0 -154 64q-43 49 -43 113q0 20 4 42z" />
<glyph unicode="d" horiz-adv-x="1238" d="M139 0l312 1607h705q96 0 153 -63q45 -50 45 -116q0 -19 -4 -40l-192 -986q-36 -184 -199 -297q-152 -105 -350 -105h-470zM516 297h151q151 0 171 105l177 908h-302z" />
<glyph unicode="e" horiz-adv-x="1084" d="M139 0l312 1607h851l-57 -297h-532l-70 -357h443l-58 -298h-443l-69 -358h532l-58 -297h-851z" />
<glyph unicode="f" horiz-adv-x="1033" d="M140 0l312 1607h851l-57 -297h-532l-70 -357h443l-58 -298h-443l-127 -655h-319z" />
<glyph unicode="g" horiz-adv-x="1209" d="M167 219l227 1169q17 91 100 156q82 63 178 63h469q96 0 153 -63q45 -50 45 -116q0 -19 -4 -40l-63 -323h-320l48 245h-302l-197 -1013h302l53 276h-151l58 297h471l-126 -651q-18 -91 -102 -155q-81 -64 -177 -64h-469q-96 0 -154 64q-43 49 -43 113q0 20 4 42z" />
<glyph unicode="h" horiz-adv-x="1258" d="M140 0l312 1607h319l-127 -654h302l127 654h320l-312 -1607h-320l127 655h-302l-127 -655h-319z" />
<glyph unicode="i" horiz-adv-x="636" d="M140 0l312 1607h319l-312 -1607h-319z" />
<glyph unicode="j" horiz-adv-x="829" d="M24 0l58 297h170q152 0 172 105l234 1205h319l-234 -1205q-36 -184 -198 -297q-153 -105 -351 -105h-170z" />
<glyph unicode="k" horiz-adv-x="1181" d="M140 0l312 1607h319l-127 -654h123l324 654h324l-397 -803l85 -804h-324l-70 655h-123l-127 -655h-319z" />
<glyph unicode="l" horiz-adv-x="946" d="M139 0l312 1607h319l-254 -1310h443l-58 -297h-762z" />
<glyph unicode="m" horiz-adv-x="1789" d="M140 0l312 1607h443l41 -1306l546 1306h443l-312 -1607h-320l206 1059l-428 -1059h-388l-18 1059l-206 -1059h-319z" />
<glyph unicode="n" horiz-adv-x="1340" d="M140 0l312 1607h443l59 -1040l202 1040h319l-312 -1607h-442l-61 1035l-201 -1035h-319z" />
<glyph unicode="o" horiz-adv-x="1233" d="M167 219l227 1169q17 91 100 156q82 63 178 63h469q96 0 153 -63q45 -50 45 -116q0 -19 -4 -40l-227 -1169q-18 -91 -102 -155q-81 -64 -177 -64h-469q-96 0 -154 64q-43 49 -43 113q0 20 4 42zM501 297h302l197 1013h-302z" />
<glyph unicode="p" horiz-adv-x="1162" d="M140 0l312 1607h705q96 0 153 -63q45 -50 45 -116q0 -19 -4 -40l-81 -414q-35 -184 -198 -296q-153 -105 -351 -105h-151l-111 -573h-319zM628 870h151q151 0 171 104l66 336h-302z" />
<glyph unicode="q" horiz-adv-x="1232" d="M169 222l227 1167q18 92 101 157q82 63 178 63h469q96 0 153 -63q44 -50 44 -115q0 -20 -4 -42l-192 -986q-26 -136 -125 -235q45 -65 45 -147q0 -32 -7 -67l-19 -96h-320l19 96q5 26 -3 47h-373q-96 0 -153 64q-44 50 -44 115q0 20 4 42zM503 299h217q59 0 80 23 q13 17 25 81l177 909h-302z" />
<glyph unicode="r" horiz-adv-x="1245" d="M140 0l312 1607h705q96 0 153 -63q45 -50 45 -116q0 -19 -4 -40l-81 -414q-30 -158 -172 -252q81 -73 81 -184q0 -33 -7 -70l-91 -468h-320l91 468q2 11 2 21q0 31 -21 54q-29 30 -75 30h-188l-111 -573h-319zM628 870h188q46 0 86 31q40 29 48 73l66 336h-302z" />
<glyph unicode="s" horiz-adv-x="1194" d="M159 219l63 324h319l-48 -246h302l49 254q2 12 2 23q0 81 -133 81q-197 0 -308 105q-92 86 -92 215q0 39 8 81l65 332q17 91 100 156q82 63 178 63h469q96 0 153 -63q45 -50 45 -116q0 -19 -4 -40l-63 -323h-320l48 245h-302l-50 -254q-2 -12 -2 -23q0 -80 133 -80 q198 0 310 -106q91 -86 91 -214q0 -39 -8 -82l-64 -332q-18 -91 -102 -155q-81 -64 -177 -64h-469q-96 0 -154 64q-43 49 -43 113q0 20 4 42z" />
<glyph unicode="t" horiz-adv-x="976" d="M277 1310l57 297h941l-57 -297h-311l-255 -1310h-318l255 1310h-312z" />
<glyph unicode="u" horiz-adv-x="1246" d="M175 219l269 1388h319l-254 -1310h302l254 1310h320l-269 -1388q-18 -91 -102 -155q-81 -64 -177 -64h-469q-96 0 -154 64q-43 49 -43 113q0 20 4 42z" />
<glyph unicode="v" horiz-adv-x="1125" d="M349 0v1607h323v-16q0 -441 -53 -1285q282 860 453 1301h324l-623 -1607h-424z" />
<glyph unicode="w" horiz-adv-x="1882" d="M320 0l36 1607h323q-10 -439 -83 -1307l449 1307h405l-59 -1307q265 868 425 1307h323l-586 -1607h-427l35 1157l-415 -1157h-426z" />
<glyph unicode="x" horiz-adv-x="1129" d="M54 0l398 804l-86 803h324q24 -220 42 -654q188 434 296 654h325l-398 -803l86 -804h-325q-24 221 -42 655q-187 -434 -296 -655h-324z" />
<glyph unicode="y" horiz-adv-x="1013" d="M320 1607h326q20 -189 20 -573q0 -92 -1 -196q204 535 318 769h326l-539 -1057l-107 -550h-320l107 549z" />
<glyph unicode="z" horiz-adv-x="944" d="M49 0l648 1310h-370l57 297h785l-648 -1310h371l-58 -297h-785z" />
<glyph unicode="{" horiz-adv-x="1017" d="M293 737l42 216h56q150 16 170 118l87 447q35 179 193 288q148 103 341 103h56l-42 -216h-56q-150 -16 -170 -118l-87 -447q-34 -175 -186 -283q110 -108 76 -283l-99 -509q-20 -102 124 -118h56l-42 -216h-56q-193 0 -301 103q-115 109 -81 288l99 509q20 102 -124 118 h-56z" />
<glyph unicode="|" horiz-adv-x="597" d="M70 -413l453 2334h297l-453 -2334h-297z" />
<glyph unicode="}" horiz-adv-x="1017" d="M95 -281l42 216h56q150 16 170 118l99 509q34 175 186 283q-110 108 -76 283l87 447q20 102 -124 118h-56l42 216h56q193 0 301 -103q116 -109 81 -288l-87 -447q-20 -102 124 -118h56l-42 -216h-56q-150 -16 -170 -118l-99 -509q-34 -179 -193 -288q-148 -103 -341 -103 h-56z" />
<glyph unicode="~" horiz-adv-x="1310" d="M313 837l30 43q105 148 245 205q70 29 135 29q72 0 137 -37l157 -90q19 -11 40 -11q55 0 121 78l30 42l149 -85l-31 -42q-104 -148 -245 -206q-69 -29 -133 -29q-73 0 -139 38l-157 89q-19 11 -40 11q-55 0 -120 -77l-31 -43z" />
<glyph unicode="&#xa1;" horiz-adv-x="885" d="M-102 -84l226 1164h336l-226 -1164h-336zM157 1294l61 313h354l-61 -313h-354z" />
<glyph unicode="&#xa2;" horiz-adv-x="1179" d="M167 219l227 1169q17 91 100 156q82 63 178 63h266l53 149h233l-53 -151q75 -8 123 -61q58 -65 41 -156l-63 -323h-320l48 245h-302l-197 -1013h302l48 246h320l-63 -324q-18 -91 -102 -155q-81 -64 -177 -64h-155l-49 -137h-232l49 137h-82q-96 0 -154 64 q-57 64 -39 155z" />
<glyph unicode="&#xa3;" horiz-adv-x="1359" d="M156 0l61 313q159 0 180 110l49 249h-165l55 283h163l61 314q37 194 208 312q161 111 369 111h356l-61 -313h-356q-159 0 -180 -110l-61 -314h437l-55 -283h-437l-30 -152q-23 -118 -95 -207h615l-61 -313h-1053z" />
<glyph unicode="&#xa4;" horiz-adv-x="1277" d="M162 471l187 152l91 468q1 7 4 15l-129 153l187 152l115 -135q35 11 72 11h418q29 0 54 -7l161 131l130 -152l-169 -137q-1 -15 -4 -31l-94 -485l114 -135l-189 -153l-101 119q-33 -10 -69 -10h-418q-44 0 -78 15l-154 -124zM624 669h308l73 376h-308z" />
<glyph unicode="&#xa5;" horiz-adv-x="1341" d="M225 142l55 283h306l29 150h-306l55 282h218l-103 835h343q26 -247 19 -810q215 563 336 810h343l-426 -835h206l-55 -282h-294l-29 -150h294l-55 -283h-294l-28 -142h-336l28 142h-306z" />
<glyph unicode="&#xa6;" horiz-adv-x="597" d="M70 -413l215 1105h297l-215 -1105h-297zM317 859l206 1062h297l-206 -1062h-297z" />
<glyph unicode="&#xa7;" horiz-adv-x="1241" d="M132 -93l44 228h320l-29 -150h302l31 159q20 103 -131 103q-198 0 -309 106q-120 112 -84 296l45 233q17 86 93 149q-46 91 -22 215l46 237q18 91 101 156q82 63 178 63h469q96 0 153 -63q58 -65 40 -156l-44 -228h-320l29 150h-302l-31 -159q-20 -103 131 -103 q198 0 310 -106q119 -112 83 -296l-45 -233q-17 -86 -93 -149q46 -91 22 -215l-46 -237q-18 -91 -100 -156q-83 -63 -179 -63h-469q-96 0 -152 63q-59 65 -41 156zM596 649q-20 -104 131 -104q80 0 147 -17l41 213q20 104 -131 104q-80 0 -146 17z" />
<glyph unicode="&#xa8;" horiz-adv-x="1049" d="M481 1701l48 248h281l-48 -248h-281zM949 1701l48 248h281l-48 -248h-281z" />
<glyph unicode="&#xa9;" horiz-adv-x="1949" d="M270 159l267 1373q13 66 71 113q58 46 126 46h1049q68 0 108 -46q40 -47 27 -113l-267 -1373q-13 -66 -71 -114q-58 -45 -126 -45h-1049q-68 0 -108 45q-40 48 -27 114zM504 215h934l245 1260h-934zM724 462l144 743q12 58 63 99q53 40 114 40h298q61 0 97 -40 q38 -41 26 -99l-40 -205h-203l31 156h-192l-125 -644h192l30 156h203l-40 -206q-11 -58 -64 -98q-52 -41 -113 -41h-298q-61 0 -98 41q-36 40 -25 98z" />
<glyph unicode="&#xaa;" horiz-adv-x="776" d="M35 437l412 964h279v-964h-214v196h-180l-84 -196h-213zM62 302l21 213h569l-22 -213h-568zM409 811h102l37 411z" />
<glyph unicode="&#xab;" horiz-adv-x="1216" d="M278 658l56 288l551 331l-45 -235l-309 -240l215 -240l-45 -235zM707 658l56 288l551 331l-45 -235l-309 -240l215 -240l-45 -235z" />
<glyph unicode="&#xac;" horiz-adv-x="1144" d="M256 783l55 283h936l-108 -559h-283l53 276h-653z" />
<glyph unicode="&#xad;" horiz-adv-x="1040" d="M239 662l55 283h753l-55 -283h-753z" />
<glyph unicode="&#xae;" horiz-adv-x="1681" d="M181 159l267 1373q13 66 71 113q58 46 126 46h1049q68 0 108 -46q40 -47 27 -113l-267 -1373q-13 -66 -71 -114q-58 -45 -126 -45h-1049q-68 0 -108 45q-40 48 -27 114zM415 215h934l245 1260h-934zM598 319l199 1025h449q61 0 97 -40q39 -41 27 -99l-51 -264 q-20 -101 -110 -161q67 -60 47 -162l-58 -299h-204l58 299q6 28 -13 48q-18 19 -47 19h-120l-71 -366h-203zM909 874h120q29 0 55 20q25 19 31 47l42 214h-193z" />
<glyph unicode="&#xaf;" horiz-adv-x="1244" d="M486 1730l42 215h944l-42 -215h-944z" />
<glyph unicode="&#xb0;" horiz-adv-x="1048" d="M408 1326q30 155 160.5 264.5t285.5 109.5t243.5 -109.5t58.5 -264.5t-161 -264.5t-286 -109.5t-243 109.5t-58 264.5zM640 1326q-12 -59 21.5 -100.5t92.5 -41.5t108.5 41.5t61.5 100.5q11 59 -22.5 100.5t-92.5 41.5t-108.5 -41.5t-60.5 -100.5z" />
<glyph unicode="&#xb1;" horiz-adv-x="1194" d="M93 0l55 283h936l-55 -283h-936zM245 783l55 283h327l64 326h282l-64 -326h327l-55 -283h-327l-63 -327h-282l63 327h-327z" />
<glyph unicode="&#xb2;" horiz-adv-x="1026" d="M290 508l79 406q26 136 132 217q104 79 248 79q47 0 69 15q24 17 33 61l36 187h-175l-35 -181h-235l46 238q14 68 75 115q60 47 131 47h296q72 0 114 -47q43 -47 29 -115l-47 -244q-26 -136 -132 -217q-104 -79 -248 -79q-48 0 -69 -15q-25 -17 -33 -61l-37 -187h410 l-42 -219h-645z" />
<glyph unicode="&#xb3;" horiz-adv-x="1026" d="M304 669l46 239h235l-35 -181h175l37 187q8 44 -9 61q-17 15 -64 15h-116l43 220h116q47 0 69 15q24 17 33 61l36 187h-175l-35 -181h-235l46 238q14 68 75 115q60 47 131 47h296q72 0 114 -47q43 -47 29 -115l-47 -244q-22 -115 -104 -186q54 -71 32 -186l-48 -245 q-13 -67 -74 -114q-60 -47 -132 -47h-296q-71 0 -113 47q-43 47 -30 114z" />
<glyph unicode="&#xb4;" horiz-adv-x="731" d="M475 1673l172 310h319l-270 -310h-221z" />
<glyph unicode="&#xb5;" horiz-adv-x="1246" d="M83 -254l361 1861h319l-254 -1310h302l254 1310h320l-269 -1388q-18 -91 -102 -155q-81 -64 -177 -64h-386l-49 -254h-319z" />
<glyph unicode="&#xb6;" horiz-adv-x="1452" d="M406 1318q30 155 161 264.5t286 109.5h313l-329 -1692h-295l183 944h-18q-155 0 -243 109.5t-58 264.5zM1007 0l329 1692h295l-329 -1692h-295z" />
<glyph unicode="&#xb7;" horiz-adv-x="508" d="M127 606l52 266h301l-52 -266h-301z" />
<glyph unicode="&#xb8;" horiz-adv-x="741" d="M83 -344l88 106q71 -39 108 -39q42 0 77.5 25.5t42.5 61.5q7 37 -18 63q-18 16 -85 44l90 109q74 -11 123 -60q63 -65 45 -156q-17 -90 -105.5 -154.5t-195.5 -64.5q-108 0 -170 65z" />
<glyph unicode="&#xb9;" horiz-adv-x="1026" d="M315 508l42 219h205l145 746h-205l43 219h266q71 0 113 -47q43 -47 29 -115l-156 -803h205l-42 -219h-645z" />
<glyph unicode="&#xba;" horiz-adv-x="913" d="M88 302l21 213h569l-22 -213h-568zM138 568l150 702q11 54 66 93q54 38 118 38h309q63 0 101 -38q38 -39 27 -93l-150 -702q-12 -54 -67 -93q-54 -38 -117 -38h-309q-64 0 -102 38q-38 39 -26 93zM359 615h199l130 608h-199z" />
<glyph unicode="&#xbb;" horiz-adv-x="1216" d="M214 327l45 235l309 240l-215 240l45 235l423 -331l-56 -288zM643 327l45 235l309 240l-215 240l45 235l423 -331l-56 -288z" />
<glyph unicode="&#xbc;" horiz-adv-x="2649" d="M315 508l42 219h205l145 746h-205l43 219h266q71 0 113 -47q43 -47 29 -115l-156 -803h205l-42 -219h-645zM906 0l953 1692h262l-954 -1692h-261zM1959 429l255 755h217l-224 -697h193l136 697h235l-136 -697h93l-42 -219h-93l-52 -268h-236l53 268h-257q-70 0 -112 46 q-43 48 -30 115z" />
<glyph unicode="&#xbd;" horiz-adv-x="2698" d="M315 508l42 219h205l145 746h-205l43 219h266q71 0 113 -47q43 -47 29 -115l-156 -803h205l-42 -219h-645zM906 0l953 1692h262l-954 -1692h-261zM1962 0l79 406q26 136 132 217q104 79 248 79q47 0 69 15q24 17 33 61l36 187h-175l-35 -181h-235l46 238q14 68 75 115 q60 47 131 47h296q72 0 114 -47q43 -47 29 -115l-47 -244q-26 -136 -132 -217q-104 -79 -248 -79q-48 0 -69 -15q-25 -17 -33 -61l-37 -187h410l-42 -219h-645z" />
<glyph unicode="&#xbe;" horiz-adv-x="2649" d="M304 669l46 239h235l-35 -181h175l37 187q8 44 -9 61q-17 15 -64 15h-116l43 220h116q47 0 69 15q24 17 33 61l36 187h-175l-35 -181h-235l46 238q14 68 75 115q60 47 131 47h296q72 0 114 -47q43 -47 29 -115l-47 -244q-22 -115 -104 -186q54 -71 32 -186l-48 -245 q-13 -67 -74 -114q-60 -47 -132 -47h-296q-71 0 -113 47q-43 47 -30 114zM906 0l953 1692h262l-954 -1692h-261zM1959 429l255 755h217l-224 -697h193l136 697h235l-136 -697h93l-42 -219h-93l-52 -268h-236l53 268h-257q-70 0 -112 46q-43 48 -30 115z" />
<glyph unicode="&#xbf;" horiz-adv-x="1045" d="M-250 147q45 230 146 424q70 133 251 391q42 60 80 119h356q-71 -121 -200 -304q-220 -313 -279 -548h247l50 258h336l-66 -340q-19 -96 -106 -165q-86 -66 -187 -66h-424q-102 0 -162 66q-61 69 -42 165zM269 1294l61 313h354l-61 -313h-354z" />
<glyph unicode="&#xc0;" horiz-adv-x="1145" d="M-12 0l657 1692h447l-2 -1692h-341l1 343h-287l-135 -343h-340zM585 656h164l58 721zM637 2068h319l52 -310h-221z" />
<glyph unicode="&#xc1;" horiz-adv-x="1145" d="M-12 0l657 1692h447l-2 -1692h-341l1 343h-287l-135 -343h-340zM585 656h164l58 721zM720 1758l172 310h319l-270 -310h-221z" />
<glyph unicode="&#xc2;" horiz-adv-x="1145" d="M-12 0l657 1692h447l-2 -1692h-341l1 343h-287l-135 -343h-340zM564 1780l166 295h395l48 -295h-210l-65 145l-122 -145h-212zM585 656h164l58 721z" />
<glyph unicode="&#xc3;" horiz-adv-x="1145" d="M-12 0l657 1692h447l-2 -1692h-341l1 343h-287l-135 -343h-340zM519 1827l23 39q80 134 181 186q51 26 97 26q51 0 97 -33l108 -82q13 -10 28 -10q39 0 89 71l23 38l102 -77l-23 -38q-80 -134 -181 -187q-51 -26 -96 -26q-52 0 -98 35l-108 80q-13 10 -28 10 q-39 0 -89 -70l-23 -39zM585 656h164l58 721z" />
<glyph unicode="&#xc4;" horiz-adv-x="1145" d="M-12 0l657 1692h447l-2 -1692h-341l1 343h-287l-135 -343h-340zM496 1786l48 248h281l-48 -248h-281zM585 656h164l58 721zM964 1786l48 248h281l-48 -248h-281z" />
<glyph unicode="&#xc5;" horiz-adv-x="1145" d="M-12 0l657 1692h191q-71 10 -115 65q-54 66 -36 159q19 94 98 160.5t173 66.5t147 -66.5t34 -160.5q-18 -93 -96 -159q-66 -55 -141 -65h192l-2 -1692h-341l1 343h-287l-135 -343h-340zM585 656h164l58 721zM820 1916q-7 -37 14.5 -63.5t59.5 -26.5t69.5 26.5t38.5 63.5 q8 38 -13.5 64.5t-59.5 26.5t-69.5 -26.5t-39.5 -64.5z" />
<glyph unicode="&#xc6;" horiz-adv-x="1626" d="M-12 0l736 1692h1143l-61 -313h-560l-73 -376h466l-61 -314h-466l-72 -376h559l-61 -313h-896l67 343h-246l-135 -343h-340zM585 656h196l147 758z" />
<glyph unicode="&#xc7;" horiz-adv-x="1171" d="M113 231l239 1230q19 96 106 164q86 67 187 67h494q101 0 161 -67q61 -68 42 -164l-66 -340h-336l50 258h-318l-207 -1066h318l50 259h336l-66 -341q-19 -96 -106 -164q-86 -67 -187 -67h-153q24 -14 44 -34q64 -65 46 -156q-17 -90 -105.5 -154.5t-196.5 -64.5 q-107 0 -169 65l87 106q72 -39 108 -39q43 0 78 25.5t42 61.5q7 37 -18 63q-17 16 -84 44l68 83h-241q-101 0 -161 67q-61 68 -42 164z" />
<glyph unicode="&#xc8;" horiz-adv-x="1068" d="M84 0l329 1692h896l-61 -313h-560l-73 -376h466l-61 -314h-466l-73 -376h560l-61 -313h-896zM630 2068h319l52 -310h-221z" />
<glyph unicode="&#xc9;" horiz-adv-x="1068" d="M84 0l329 1692h896l-61 -313h-560l-73 -376h466l-61 -314h-466l-73 -376h560l-61 -313h-896zM713 1758l172 310h319l-270 -310h-221z" />
<glyph unicode="&#xca;" horiz-adv-x="1068" d="M84 0l329 1692h896l-61 -313h-560l-73 -376h466l-61 -314h-466l-73 -376h560l-61 -313h-896zM557 1780l166 295h395l48 -295h-210l-65 145l-122 -145h-212z" />
<glyph unicode="&#xcb;" horiz-adv-x="1068" d="M84 0l329 1692h896l-61 -313h-560l-73 -376h466l-61 -314h-466l-73 -376h560l-61 -313h-896zM489 1786l48 248h281l-48 -248h-281zM957 1786l48 248h281l-48 -248h-281z" />
<glyph unicode="&#xcc;" horiz-adv-x="604" d="M84 0l329 1692h336l-329 -1692h-336zM350 2068h319l52 -310h-221z" />
<glyph unicode="&#xcd;" horiz-adv-x="604" d="M84 0l329 1692h336l-329 -1692h-336zM433 1758l172 310h319l-270 -310h-221z" />
<glyph unicode="&#xce;" horiz-adv-x="604" d="M84 0l329 1692h336l-329 -1692h-336zM277 1780l166 295h395l48 -295h-210l-65 145l-122 -145h-212z" />
<glyph unicode="&#xcf;" horiz-adv-x="604" d="M84 0l329 1692h336l-329 -1692h-336zM209 1786l48 248h281l-48 -248h-281zM677 1786l48 248h281l-48 -248h-281z" />
<glyph unicode="&#xd0;" horiz-adv-x="1232" d="M84 0l144 740h-90l41 213h90l144 739h742q101 0 161 -67q61 -68 42 -164l-202 -1038q-37 -194 -208 -312q-161 -111 -369 -111h-495zM481 313h159q159 0 180 110l186 956h-318l-83 -426h176l-41 -213h-176z" />
<glyph unicode="&#xd1;" horiz-adv-x="1345" d="M84 0l329 1692h466l62 -1095l213 1095h336l-329 -1692h-465l-64 1090l-212 -1090h-336zM603 1827l23 39q80 134 181 186q51 26 97 26q51 0 97 -33l108 -82q13 -10 28 -10q39 0 89 71l23 38l102 -77l-23 -38q-80 -134 -181 -187q-51 -26 -96 -26q-52 0 -98 35l-108 80 q-13 10 -28 10q-39 0 -89 -70l-23 -39z" />
<glyph unicode="&#xd2;" horiz-adv-x="1235" d="M113 231l239 1230q19 96 106 164q86 67 187 67h494q101 0 161 -67q61 -68 42 -164l-239 -1230q-19 -96 -106 -164q-86 -67 -187 -67h-494q-101 0 -161 67q-61 68 -42 164zM465 313h318l207 1066h-318zM661 2068h319l52 -310h-221z" />
<glyph unicode="&#xd3;" horiz-adv-x="1235" d="M113 231l239 1230q19 96 106 164q86 67 187 67h494q101 0 161 -67q61 -68 42 -164l-239 -1230q-19 -96 -106 -164q-86 -67 -187 -67h-494q-101 0 -161 67q-61 68 -42 164zM465 313h318l207 1066h-318zM744 1758l172 310h319l-270 -310h-221z" />
<glyph unicode="&#xd4;" horiz-adv-x="1235" d="M113 231l239 1230q19 96 106 164q86 67 187 67h494q101 0 161 -67q61 -68 42 -164l-239 -1230q-19 -96 -106 -164q-86 -67 -187 -67h-494q-101 0 -161 67q-61 68 -42 164zM465 313h318l207 1066h-318zM588 1780l166 295h395l48 -295h-210l-65 145l-122 -145h-212z" />
<glyph unicode="&#xd5;" horiz-adv-x="1235" d="M113 231l239 1230q19 96 106 164q86 67 187 67h494q101 0 161 -67q61 -68 42 -164l-239 -1230q-19 -96 -106 -164q-86 -67 -187 -67h-494q-101 0 -161 67q-61 68 -42 164zM465 313h318l207 1066h-318zM543 1827l23 39q80 134 181 186q51 26 97 26q51 0 97 -33l108 -82 q13 -10 28 -10q39 0 89 71l23 38l102 -77l-23 -38q-80 -134 -181 -187q-51 -26 -96 -26q-52 0 -98 35l-108 80q-13 10 -28 10q-39 0 -89 -70l-23 -39z" />
<glyph unicode="&#xd6;" horiz-adv-x="1235" d="M113 231l239 1230q19 96 106 164q86 67 187 67h494q101 0 161 -67q61 -68 42 -164l-239 -1230q-19 -96 -106 -164q-86 -67 -187 -67h-494q-101 0 -161 67q-61 68 -42 164zM465 313h318l207 1066h-318zM520 1786l48 248h281l-48 -248h-281zM988 1786l48 248h281l-48 -248 h-281z" />
<glyph unicode="&#xd7;" horiz-adv-x="1122" d="M265 693l276 232l-185 230l237 200l186 -231l276 231l162 -200l-276 -231l186 -231l-238 -200l-187 232l-276 -232z" />
<glyph unicode="&#xd8;" horiz-adv-x="1235" d="M113 231l239 1230q19 96 106 164q86 67 187 67h207l52 175h221l-52 -175h66q101 0 161 -67q61 -68 42 -164l-239 -1230q-19 -96 -106 -164q-86 -67 -187 -67h-238l-69 -234h-220l69 234h-36q-101 0 -161 67q-61 68 -42 164zM504 516l256 863h-88zM665 313h118l207 1066 h-10z" />
<glyph unicode="&#xd9;" horiz-adv-x="1242" d="M117 231l284 1461h336l-268 -1379h318l268 1379h336l-284 -1461q-19 -96 -106 -164q-86 -67 -187 -67h-494q-101 0 -161 67q-61 68 -42 164zM665 2068h319l52 -310h-221z" />
<glyph unicode="&#xda;" horiz-adv-x="1242" d="M117 231l284 1461h336l-268 -1379h318l268 1379h336l-284 -1461q-19 -96 -106 -164q-86 -67 -187 -67h-494q-101 0 -161 67q-61 68 -42 164zM748 1758l172 310h319l-270 -310h-221z" />
<glyph unicode="&#xdb;" horiz-adv-x="1242" d="M117 231l284 1461h336l-268 -1379h318l268 1379h336l-284 -1461q-19 -96 -106 -164q-86 -67 -187 -67h-494q-101 0 -161 67q-61 68 -42 164zM592 1780l166 295h395l48 -295h-210l-65 145l-122 -145h-212z" />
<glyph unicode="&#xdc;" horiz-adv-x="1242" d="M117 231l284 1461h336l-268 -1379h318l268 1379h336l-284 -1461q-19 -96 -106 -164q-86 -67 -187 -67h-494q-101 0 -161 67q-61 68 -42 164zM524 1786l48 248h281l-48 -248h-281zM992 1786l48 248h281l-48 -248h-281z" />
<glyph unicode="&#xdd;" horiz-adv-x="1011" d="M289 1692h343q26 -247 19 -810q215 563 336 810h343l-568 -1113l-113 -579h-336l112 578zM662 1758l172 310h319l-270 -310h-221z" />
<glyph unicode="&#xde;" horiz-adv-x="1162" d="M96 -232l399 2056h319l-43 -217h387q96 0 153 -63q58 -65 41 -156l-81 -414q-35 -184 -198 -296q-153 -105 -351 -105h-151l-156 -805h-319zM629 870h151q151 0 171 104l66 336h-302z" />
<glyph unicode="&#xdf;" horiz-adv-x="1219" d="M84 0l247 1269q37 194 208 312q187 109 350 109q164 0 303 -109q125 -118 88 -312l-31 -157q-30 -153 -158 -250q131 -100 96 -282l-48 -248q-38 -194 -209 -312q-94 -65 -215 -65q-87 0 -186 33l61 313q80 -33 130 -33q70 0 83 64l48 248q16 85 -103.5 97t-93.5 157l1 5 q27 140 132 154q106 13 126 119l31 157q20 103 -118 110q-139 -7 -159 -110l-247 -1269h-336z" />
<glyph unicode="&#xe0;" horiz-adv-x="1132" d="M39 0l624 1607h424l-1 -1607h-324v326h-272l-128 -326h-323zM606 623h155l55 685zM660 1983h319l52 -310h-221z" />
<glyph unicode="&#xe1;" horiz-adv-x="1132" d="M39 0l624 1607h424l-1 -1607h-324v326h-272l-128 -326h-323zM606 623h155l55 685zM744 1673l172 310h319l-270 -310h-221z" />
<glyph unicode="&#xe2;" horiz-adv-x="1132" d="M39 0l624 1607h424l-1 -1607h-324v326h-272l-128 -326h-323zM587 1695l166 295h395l48 -295h-210l-65 145l-122 -145h-212zM606 623h155l55 685z" />
<glyph unicode="&#xe3;" horiz-adv-x="1132" d="M39 0l624 1607h424l-1 -1607h-324v326h-272l-128 -326h-323zM543 1742l23 39q80 134 181 186q51 26 97 26q51 0 97 -33l108 -82q13 -10 28 -10q39 0 89 71l23 38l102 -77l-23 -38q-80 -134 -181 -187q-51 -26 -96 -26q-52 0 -98 35l-108 80q-13 10 -28 10q-39 0 -89 -70 l-23 -39zM606 623h155l55 685z" />
<glyph unicode="&#xe4;" horiz-adv-x="1132" d="M39 0l624 1607h424l-1 -1607h-324v326h-272l-128 -326h-323zM519 1701l48 248h281l-48 -248h-281zM606 623h155l55 685zM987 1701l48 248h281l-48 -248h-281z" />
<glyph unicode="&#xe5;" horiz-adv-x="1132" d="M39 0l624 1607h180q-71 10 -115 65q-53 66 -35 159q18 94 97 160.5t173 66.5t147 -66.5t35 -160.5q-18 -93 -97 -159q-66 -55 -141 -65h180l-1 -1607h-324v326h-272l-128 -326h-323zM606 623h155l55 685zM828 1831q-7 -37 14 -63.5t59 -26.5q37 0 69 26.5t39 63.5 q7 38 -14 64.5t-58 26.5q-38 0 -70 -26.5t-39 -64.5z" />
<glyph unicode="&#xe6;" horiz-adv-x="1548" d="M-12 0l699 1607h1086l-57 -297h-532l-70 -357h442l-58 -298h-442l-69 -358h532l-58 -297h-852l63 326h-233l-128 -326h-323zM555 623h186l140 720z" />
<glyph unicode="&#xe7;" horiz-adv-x="1179" d="M167 219l227 1169q17 91 100 156q82 63 178 63h469q96 0 153 -63q58 -65 41 -156l-63 -323h-320l48 245h-302l-197 -1013h302l48 246h320l-63 -324q-18 -91 -102 -155q-81 -64 -177 -64h-141q25 -14 45 -34q63 -65 45 -156q-17 -90 -105.5 -154.5t-195.5 -64.5 q-108 0 -170 65l88 106q71 -39 108 -39q42 0 77.5 25.5t42.5 61.5q7 37 -18 63q-18 16 -85 44l69 83h-229q-96 0 -154 64q-57 64 -39 155z" />
<glyph unicode="&#xe8;" horiz-adv-x="1084" d="M139 0l312 1607h851l-57 -297h-532l-70 -357h443l-58 -298h-443l-69 -358h532l-58 -297h-851zM662 1983h319l52 -310h-221z" />
<glyph unicode="&#xe9;" horiz-adv-x="1084" d="M139 0l312 1607h851l-57 -297h-532l-70 -357h443l-58 -298h-443l-69 -358h532l-58 -297h-851zM746 1673l172 310h319l-270 -310h-221z" />
<glyph unicode="&#xea;" horiz-adv-x="1084" d="M139 0l312 1607h851l-57 -297h-532l-70 -357h443l-58 -298h-443l-69 -358h532l-58 -297h-851zM589 1695l166 295h395l48 -295h-210l-65 145l-122 -145h-212z" />
<glyph unicode="&#xeb;" horiz-adv-x="1084" d="M139 0l312 1607h851l-57 -297h-532l-70 -357h443l-58 -298h-443l-69 -358h532l-58 -297h-851zM521 1701l48 248h281l-48 -248h-281zM989 1701l48 248h281l-48 -248h-281z" />
<glyph unicode="&#xec;" horiz-adv-x="636" d="M140 0l312 1607h319l-312 -1607h-319zM397 1983h319l52 -310h-221z" />
<glyph unicode="&#xed;" horiz-adv-x="636" d="M140 0l312 1607h319l-312 -1607h-319zM481 1673l172 310h319l-270 -310h-221z" />
<glyph unicode="&#xee;" horiz-adv-x="636" d="M140 0l312 1607h319l-312 -1607h-319zM324 1695l166 295h395l48 -295h-210l-65 145l-122 -145h-212z" />
<glyph unicode="&#xef;" horiz-adv-x="636" d="M140 0l312 1607h319l-312 -1607h-319zM256 1701l48 248h281l-48 -248h-281zM724 1701l48 248h281l-48 -248h-281z" />
<glyph unicode="&#xf0;" d="M248 231l62 320q45 233 232 339q92 53 189 53q111 0 227 -70q32 166 15 287l-311 -81l-17 213l248 64q-69 79 -190 109l119 227q270 -60 389 -253l226 59l17 -213l-168 -44q41 -199 -14 -481l-84 -430q-38 -195 -125 -263q-86 -67 -187 -67h-424q-102 0 -162 67 q-61 68 -42 164zM600 313h249l46 238q12 62 -13 87q-23 22 -91 22q-67 0 -98 -22q-35 -25 -47 -87z" />
<glyph unicode="&#xf1;" horiz-adv-x="1340" d="M140 0l312 1607h443l59 -1040l202 1040h319l-312 -1607h-442l-61 1035l-201 -1035h-319zM632 1742l23 39q80 134 181 186q51 26 97 26q51 0 97 -33l108 -82q13 -10 28 -10q39 0 89 71l23 38l102 -77l-23 -38q-80 -134 -181 -187q-51 -26 -96 -26q-52 0 -98 35l-108 80 q-13 10 -28 10q-39 0 -89 -70l-23 -39z" />
<glyph unicode="&#xf2;" horiz-adv-x="1233" d="M167 219l227 1169q17 91 100 156q82 63 178 63h469q96 0 153 -63q58 -65 41 -156l-227 -1169q-18 -91 -102 -155q-81 -64 -177 -64h-469q-96 0 -154 64q-57 64 -39 155zM501 297h302l197 1013h-302zM692 1983h319l52 -310h-221z" />
<glyph unicode="&#xf3;" horiz-adv-x="1233" d="M167 219l227 1169q17 91 100 156q82 63 178 63h469q96 0 153 -63q58 -65 41 -156l-227 -1169q-18 -91 -102 -155q-81 -64 -177 -64h-469q-96 0 -154 64q-57 64 -39 155zM501 297h302l197 1013h-302zM776 1673l172 310h319l-270 -310h-221z" />
<glyph unicode="&#xf4;" horiz-adv-x="1233" d="M167 219l227 1169q17 91 100 156q82 63 178 63h469q96 0 153 -63q58 -65 41 -156l-227 -1169q-18 -91 -102 -155q-81 -64 -177 -64h-469q-96 0 -154 64q-57 64 -39 155zM501 297h302l197 1013h-302zM619 1695l166 295h395l48 -295h-210l-65 145l-122 -145h-212z" />
<glyph unicode="&#xf5;" horiz-adv-x="1233" d="M167 219l227 1169q17 91 100 156q82 63 178 63h469q96 0 153 -63q58 -65 41 -156l-227 -1169q-18 -91 -102 -155q-81 -64 -177 -64h-469q-96 0 -154 64q-57 64 -39 155zM501 297h302l197 1013h-302zM575 1742l23 39q80 134 181 186q51 26 97 26q51 0 97 -33l108 -82 q13 -10 28 -10q39 0 89 71l23 38l102 -77l-23 -38q-80 -134 -181 -187q-51 -26 -96 -26q-52 0 -98 35l-108 80q-13 10 -28 10q-39 0 -89 -70l-23 -39z" />
<glyph unicode="&#xf6;" horiz-adv-x="1233" d="M167 219l227 1169q17 91 100 156q82 63 178 63h469q96 0 153 -63q58 -65 41 -156l-227 -1169q-18 -91 -102 -155q-81 -64 -177 -64h-469q-96 0 -154 64q-57 64 -39 155zM501 297h302l197 1013h-302zM551 1701l48 248h281l-48 -248h-281zM1019 1701l48 248h281l-48 -248 h-281z" />
<glyph unicode="&#xf7;" horiz-adv-x="1236" d="M302 783l55 283h936l-55 -283h-936zM441 277l61 313h354l-61 -313h-354zM632 1259l61 313h354l-61 -313h-354z" />
<glyph unicode="&#xf8;" horiz-adv-x="1233" d="M167 219l227 1169q17 91 100 156q82 63 178 63h180l41 124h270l-42 -124h20q96 0 153 -63q58 -65 41 -156l-227 -1169q-18 -91 -102 -155q-81 -64 -177 -64h-202l-40 -119h-268l39 119q-95 1 -152 64q-57 64 -39 155zM501 297h302l197 1013h-302z" />
<glyph unicode="&#xf9;" horiz-adv-x="1246" d="M175 219l269 1388h319l-254 -1310h302l254 1310h320l-269 -1388q-18 -91 -102 -155q-81 -64 -177 -64h-469q-96 0 -154 64q-57 64 -39 155zM700 1983h319l52 -310h-221z" />
<glyph unicode="&#xfa;" horiz-adv-x="1246" d="M175 219l269 1388h319l-254 -1310h302l254 1310h320l-269 -1388q-18 -91 -102 -155q-81 -64 -177 -64h-469q-96 0 -154 64q-57 64 -39 155zM784 1673l172 310h319l-270 -310h-221z" />
<glyph unicode="&#xfb;" horiz-adv-x="1246" d="M175 219l269 1388h319l-254 -1310h302l254 1310h320l-269 -1388q-18 -91 -102 -155q-81 -64 -177 -64h-469q-96 0 -154 64q-57 64 -39 155zM627 1695l166 295h395l48 -295h-210l-65 145l-122 -145h-212z" />
<glyph unicode="&#xfc;" horiz-adv-x="1246" d="M175 219l269 1388h319l-254 -1310h302l254 1310h320l-269 -1388q-18 -91 -102 -155q-81 -64 -177 -64h-469q-96 0 -154 64q-57 64 -39 155zM559 1701l48 248h281l-48 -248h-281zM1027 1701l48 248h281l-48 -248h-281z" />
<glyph unicode="&#xfd;" horiz-adv-x="1013" d="M320 1607h326q25 -234 19 -769q204 535 318 769h326l-539 -1057l-107 -550h-320l107 549zM684 1673l172 310h319l-270 -310h-221z" />
<glyph unicode="&#xfe;" horiz-adv-x="1162" d="M96 -232l399 2056h319l-43 -217h387q96 0 153 -63q58 -65 41 -156l-81 -414q-35 -184 -198 -296q-153 -105 -351 -105h-151l-156 -805h-319zM629 870h151q151 0 171 104l66 336h-302z" />
<glyph unicode="&#xff;" horiz-adv-x="1013" d="M320 1607h326q25 -234 19 -769q204 535 318 769h326l-539 -1057l-107 -550h-320l107 549zM459 1701l48 248h281l-48 -248h-281zM927 1701l48 248h281l-48 -248h-281z" />
<glyph unicode="&#x152;" horiz-adv-x="1594" d="M113 231l239 1230q19 96 106 164q86 67 187 67h494q101 0 161 -67q61 -68 42 -164l-239 -1230q-19 -96 -106 -164q-86 -67 -187 -67h-494q-101 0 -161 67q-61 68 -42 164zM465 313h318l207 1066h-318zM610 0l329 1692h896l-61 -313h-560l-73 -376h466l-61 -314h-466 l-73 -376h560l-61 -313h-896z" />
<glyph unicode="&#x153;" horiz-adv-x="1840" d="M167 219l227 1169q17 91 100 156q82 63 178 63h469q96 0 153 -63q58 -65 41 -156l-227 -1169q-18 -91 -102 -155q-81 -64 -177 -64h-469q-96 0 -154 64q-57 64 -39 155zM501 297h302l197 1013h-302zM895 0l312 1607h851l-57 -297h-532l-70 -357h443l-58 -298h-443 l-69 -358h532l-58 -297h-851z" />
<glyph unicode="&#x178;" horiz-adv-x="1011" d="M289 1692h343q26 -247 19 -810q215 563 336 810h343l-568 -1113l-113 -579h-336l112 578zM437 1786l48 248h281l-48 -248h-281zM905 1786l48 248h281l-48 -248h-281z" />
<glyph unicode="&#x2c6;" horiz-adv-x="909" d="M479 1695l166 295h395l48 -295h-210l-65 145l-122 -145h-212z" />
<glyph unicode="&#x2dc;" horiz-adv-x="1018" d="M489 1742l23 39q80 134 181 186q51 26 97 26q51 0 97 -33l108 -82q13 -10 28 -10q39 0 89 71l23 38l102 -77l-23 -38q-80 -134 -181 -187q-51 -26 -96 -26q-52 0 -98 35l-108 80q-13 10 -28 10q-39 0 -89 -70l-23 -39z" />
<glyph unicode="&#x2000;" horiz-adv-x="1071" />
<glyph unicode="&#x2001;" horiz-adv-x="2143" />
<glyph unicode="&#x2002;" horiz-adv-x="1071" />
<glyph unicode="&#x2003;" horiz-adv-x="2143" />
<glyph unicode="&#x2004;" horiz-adv-x="714" />
<glyph unicode="&#x2005;" horiz-adv-x="535" />
<glyph unicode="&#x2006;" horiz-adv-x="357" />
<glyph unicode="&#x2007;" horiz-adv-x="357" />
<glyph unicode="&#x2008;" horiz-adv-x="267" />
<glyph unicode="&#x2009;" horiz-adv-x="428" />
<glyph unicode="&#x200a;" horiz-adv-x="119" />
<glyph unicode="&#x2010;" horiz-adv-x="1040" d="M239 662l55 283h753l-55 -283h-753z" />
<glyph unicode="&#x2011;" horiz-adv-x="1040" d="M239 662l55 283h753l-55 -283h-753z" />
<glyph unicode="&#x2012;" horiz-adv-x="1040" d="M239 662l55 283h753l-55 -283h-753z" />
<glyph unicode="&#x2013;" horiz-adv-x="1375" d="M129 662l55 283h1375l-55 -283h-1375z" />
<glyph unicode="&#x2014;" horiz-adv-x="2117" d="M129 662l55 283h2117l-55 -283h-2117z" />
<glyph unicode="&#x2018;" horiz-adv-x="654" d="M380 1184l61 313l319 354l-69 -354h104l-61 -313h-354z" />
<glyph unicode="&#x2019;" horiz-adv-x="654" d="M420 1389l61 313h354l-61 -313l-319 -354l69 354h-104z" />
<glyph unicode="&#x201a;" horiz-adv-x="654" d="M150 2l61 313h354l-61 -313l-318 -354l68 354h-104z" />
<glyph unicode="&#x201c;" horiz-adv-x="1150" d="M380 1184l61 313l319 354l-69 -354h104l-61 -313h-354zM876 1184l61 313l319 354l-69 -354h104l-61 -313h-354z" />
<glyph unicode="&#x201d;" horiz-adv-x="1150" d="M420 1389l61 313h354l-61 -313l-319 -354l69 354h-104zM916 1389l61 313h354l-61 -313l-319 -354l69 354h-104z" />
<glyph unicode="&#x201e;" horiz-adv-x="1150" d="M420 20l61 313h354l-61 -313l-319 -354l69 354h-104zM916 20l61 313h354l-61 -313l-319 -354l69 354h-104z" />
<glyph unicode="&#x2022;" horiz-adv-x="792" d="M209 802q27 139 144 237.5t256 98.5t218.5 -98.5t52.5 -237.5t-144.5 -237.5t-256.5 -98.5t-218 98.5t-52 237.5z" />
<glyph unicode="&#x2026;" horiz-adv-x="2048" d="M130 1l61 313h354l-61 -313h-354zM813 1l61 313h354l-61 -313h-354zM1496 1l61 313h354l-61 -313h-354z" />
<glyph unicode="&#x202f;" horiz-adv-x="428" />
<glyph unicode="&#x2039;" horiz-adv-x="787" d="M278 658l56 288l551 331l-45 -235l-309 -240l215 -240l-45 -235z" />
<glyph unicode="&#x203a;" horiz-adv-x="787" d="M214 327l45 235l309 240l-215 240l45 235l423 -331l-56 -288z" />
<glyph unicode="&#x205f;" horiz-adv-x="535" />
<glyph unicode="&#x20ac;" horiz-adv-x="1170" d="M179 569l41 213h148l29 149h-148l41 213h148l62 317q19 96 95 164q75 67 161 67h419q86 0 135 -67q50 -68 31 -164l-66 -340h-285l50 258h-271l-46 -235h188l-41 -213h-188l-29 -149h188l-41 -213h-188l-50 -256h271l50 259h285l-66 -341q-19 -96 -95 -164 q-75 -67 -161 -67h-419q-86 0 -135 67q-50 68 -31 164l66 338h-148z" />
<glyph unicode="&#x2122;" horiz-adv-x="1305" d="M266 1482l24 125h656l32 -550l246 550h209l-131 -677h-151l86 446l-191 -446h-184l-20 446l-86 -446h-151l107 552h-148l-107 -552h-150l107 552h-148z" />
<glyph unicode="&#x25fc;" horiz-adv-x="1605" d="M0 0v1605h1605v-1605h-1605z" />
<glyph unicode="&#xfb01;" horiz-adv-x="1669" d="M140 0l312 1607h851l-57 -297h-532l-70 -357h443l-58 -298h-443l-127 -655h-319zM1173 0l312 1607h319l-312 -1607h-319z" />
<glyph unicode="&#xfb02;" horiz-adv-x="1979" d="M140 0l312 1607h851l-57 -297h-532l-70 -357h443l-58 -298h-443l-127 -655h-319zM1172 0l312 1607h319l-254 -1310h443l-58 -297h-762z" />
<glyph unicode="&#xfb03;" horiz-adv-x="2702" d="M140 0l312 1607h851l-57 -297h-532l-70 -357h443l-58 -298h-443l-127 -655h-319zM1173 0l312 1607h851l-57 -297h-532l-70 -357h443l-58 -298h-443l-127 -655h-319zM2206 0l312 1607h319l-312 -1607h-319z" />
<glyph unicode="&#xfb04;" horiz-adv-x="3012" d="M140 0l312 1607h851l-57 -297h-532l-70 -357h443l-58 -298h-443l-127 -655h-319zM1173 0l312 1607h851l-57 -297h-532l-70 -357h443l-58 -298h-443l-127 -655h-319zM2205 0l312 1607h319l-254 -1310h443l-58 -297h-762z" />
</font>
</defs>
</svg>
